<?xml version="1.0" encoding="UTF-8" standalone="no" ?>
<!DOCTYPE svg PUBLIC "-//W3C//DTD SVG 1.1//EN" "http://www.w3.org/Graphics/SVG/1.1/DTD/svg11.dtd">
<svg xmlns="http://www.w3.org/2000/svg" xmlns:xlink="http://www.w3.org/1999/xlink" version="1.1" width="70" height="70" viewBox="0 0 350 350" xml:space="preserve">
<desc>Created with Fabric.js 3.6.2</desc>
<defs>
</defs>
<g transform="matrix(8.33 0 0 8.33 200 200)" id="Слой_1"  >
<path style="stroke: none; stroke-width: 1; stroke-dasharray: none; stroke-linecap: butt; stroke-dashoffset: 0; stroke-linejoin: miter; stroke-miterlimit: 4; fill: rgb(253,200,84); fill-rule: nonzero; opacity: 1;"  transform=" translate(-13, -13)" d="M 24.25 2.5898438 h -2.8359375 c -0.0267944 0 -0.0495605 0.0125122 -0.0756226 0.0152588 c -0.0543823 0.0055542 -0.1052246 0.0145874 -0.156189 0.0315552 c -0.0426636 0.0140991 -0.0811768 0.0314941 -0.1200562 0.0526123 c -0.0447388 0.024353 -0.085083 0.0507813 -0.1240845 0.0836792 c -0.0358887 0.0301514 -0.0663452 0.0622559 -0.0960083 0.0984497 c -0.0305786 0.0372925 -0.0567017 0.0752563 -0.079895 0.1184692 c -0.0239868 0.0443726 -0.0408325 0.0899048 -0.055542 0.1390991 c -0.0079956 0.0266724 -0.0252686 0.0480957 -0.0303955 0.0761108 l -0.4295044 2.3473511 L 1.8930664 6.625 C 1.8227539 6.6201172 1.7607422 6.6303711 1.6821289 6.6376953 C 1.2744141 6.6748047 0.9716797 7.0322266 1.0019531 7.4404297 c 0.0024414 0.0307617 0.0063477 0.0605469 0.012207 0.0898438 l 1.2788086 6.9746094 c 0.2924805 1.081543 1.1933594 2.1733398 2.5483398 2.1733398 h 13.3695679 l -0.2862549 1.5644531 H 6.6748047 c -1.4243164 0 -2.5834961 1.1591797 -2.5834961 2.5834961 c 0 1.4248047 1.1591797 2.5839844 2.5834961 2.5839844 s 2.5834961 -1.1591797 2.5834961 -2.5839844 c 0 -0.3881226 -0.0922241 -0.7528687 -0.2462769 -1.0834961 h 6.9080811 c -0.1540527 0.3306274 -0.2462769 0.6953735 -0.2462769 1.0834961 c 0 1.4248047 1.1591797 2.5839844 2.5834961 2.5839844 s 2.5834961 -1.1591797 2.5834961 -2.5839844 c 0 -1.0127563 -0.5914307 -1.8825073 -1.4421387 -2.3057861 l 2.640564 -14.430542 H 24.25 c 0.4140625 0 0.75 -0.3359375 0.75 -0.75 S 24.6640625 2.5898438 24.25 2.5898438 z M 19.0220947 12.244812 l -3.1782227 0.0499268 l 0.1730957 -1.8419189 l 3.3514404 -0.1004639 L 19.0220947 12.244812 z M 3.1442871 10.8387451 l 3.1759644 -0.0952148 l 0.2077637 1.6974487 l -3.081543 0.0484009 L 3.1442871 10.8387451 z M 7.3235474 10.7134399 l 3.4909058 -0.1046143 v 1.7648315 l -3.281311 0.0515747 L 7.3235474 10.7134399 z M 10.8144531 9.6079102 L 7.2014771 9.7162476 l -0.230835 -1.885376 l 3.843811 -0.2247314 V 9.6079102 z M 11.8144531 7.5476685 l 3.4902344 -0.2041016 l -0.2006836 2.1357422 l -3.2895508 0.0986328 V 7.5476685 z M 10.8144531 13.3739014 v 1.8043213 H 7.8701782 l -0.2148438 -1.7546997 L 10.8144531 13.3739014 z M 11.8144531 13.3582153 l 2.9293823 -0.0459595 l -0.175354 1.8659668 h -2.7540283 V 13.3582153 z M 11.8144531 12.3579712 v -1.7791138 l 3.1952515 -0.0958252 l -0.1717529 1.8274536 L 11.8144531 12.3579712 z M 19.5525513 9.3459473 l -3.4412842 0.1031494 l 0.2033691 -2.1645508 l 3.6542358 -0.2136841 L 19.5525513 9.3459473 z M 5.9707642 7.8893433 l 0.227356 1.8569336 l -3.236145 0.0970459 C 2.8256226 9.102478 2.717041 8.5267334 2.6245117 8.0849609 L 5.9707642 7.8893433 z M 3.7548828 14.1743164 l -0.1258545 -0.687561 l 3.0212402 -0.0474243 l 0.2128906 1.7388916 H 4.8413086 C 4.1987305 15.1782227 3.8408203 14.4819336 3.7548828 14.1743164 z M 15.572937 15.1782227 l 0.1768188 -1.8817749 l 3.0888062 -0.0485229 l -0.3532104 1.9302979 H 15.572937 z M 7.7583008 20.8261719 c 0 0.5976563 -0.4858398 1.0839844 -1.0834961 1.0839844 s -1.0834961 -0.4863281 -1.0834961 -1.0839844 s 0.4858398 -1.0834961 1.0834961 -1.0834961 S 7.7583008 20.2285156 7.7583008 20.8261719 z M 18.2573242 21.9101563 c -0.5976563 0 -1.0834961 -0.4863281 -1.0834961 -1.0839844 s 0.4858398 -1.0834961 1.0834961 -1.0834961 s 1.0834961 0.4858398 1.0834961 1.0834961 S 18.8549805 21.9101563 18.2573242 21.9101563 z" stroke-linecap="round" />
</g>
</svg>